<?xml version="1.0" encoding="UTF-8"?>
<svg xmlns="http://www.w3.org/2000/svg" xmlns:xlink="http://www.w3.org/1999/xlink" width="40px" height="px" viewBox="0 0 40 40" version="1.1">
<g id="surface1">
<path style=" stroke:none;fill-rule:evenodd;fill:rgb(0%,40%,64.313725%);fill-opacity:1;" d="M 20 0 C 31.046875 0 40 9.179688 40 20.507812 C 40 29.5625 34.277344 37.246094 26.335938 39.960938 C 25.320312 40.164062 24.960938 39.523438 24.960938 38.976562 C 24.960938 38.300781 24.984375 36.09375 24.984375 33.351562 C 24.984375 31.4375 24.34375 30.191406 23.625 29.554688 C 28.078125 29.046875 32.761719 27.3125 32.761719 19.4375 C 32.761719 17.195312 31.984375 15.367188 30.699219 13.933594 C 30.90625 13.414062 31.59375 11.328125 30.503906 8.503906 C 30.503906 8.503906 28.828125 7.953125 25.011719 10.605469 C 23.410156 10.152344 21.699219 9.925781 20 9.914062 C 18.300781 9.925781 16.589844 10.152344 14.992188 10.605469 C 11.171875 7.953125 9.492188 8.503906 9.492188 8.503906 C 8.40625 11.328125 9.09375 13.414062 9.296875 13.933594 C 8.019531 15.367188 7.238281 17.195312 7.238281 19.4375 C 7.238281 27.292969 11.90625 29.050781 16.351562 29.570312 C 15.777344 30.082031 15.261719 30.984375 15.078125 32.3125 C 13.941406 32.835938 11.042969 33.742188 9.261719 30.609375 C 9.261719 30.609375 8.203125 28.636719 6.195312 28.492188 C 6.195312 28.492188 4.242188 28.46875 6.058594 29.738281 C 6.058594 29.738281 7.367188 30.371094 8.277344 32.738281 C 8.277344 32.738281 9.453125 36.398438 15.015625 35.160156 C 15.027344 36.875 15.042969 38.488281 15.042969 38.976562 C 15.042969 39.519531 14.675781 40.152344 13.679688 39.964844 C 5.730469 37.253906 0 29.566406 0 20.507812 C 0 9.179688 8.957031 0 20 0 "/>
</g>
</svg>
