<?xml version="1.0" encoding="iso-8859-1"?>
<!-- Uploaded to: SVG Repo, www.svgrepo.com, Generator: SVG Repo Mixer Tools -->
<svg height="800px" width="800px" version="1.1" id="Layer_1" xmlns="http://www.w3.org/2000/svg" xmlns:xlink="http://www.w3.org/1999/xlink" 
	 viewBox="0 0 512 512" xml:space="preserve">
<path style="fill:#999999;" d="M256,16c118.097,0,213.832,95.736,213.832,213.832S374.096,443.664,256,443.664
	S42.168,347.928,42.168,229.832l0,0C42.3,111.791,137.959,16.132,256,16 M256,0C129.067,0,26.168,102.899,26.168,229.832
	S129.067,459.663,256,459.663s229.833-102.898,229.833-229.832l0,0C485.832,102.899,382.933,0,256,0z"/>
<circle style="fill:#E21B1B;" cx="255.997" cy="229.835" r="108.941"/>
<g style="opacity:0.25;">
	<circle style="fill:#FFFFFF;" cx="255.997" cy="229.835" r="45.144"/>
</g>
<circle style="fill:#FFFFFF;" cx="255.997" cy="459.669" r="48.336"/>
<path style="fill:#E21B1B;" d="M256,415.328c24.486,0,44.335,19.849,44.335,44.335S280.486,503.999,256,503.999
	c-24.486,0-44.335-19.849-44.335-44.336l0,0C211.695,435.19,231.527,415.359,256,415.328 M256,407.328
	c-28.904,0-52.336,23.432-52.336,52.336C203.664,488.568,227.096,512,256,512s52.336-23.432,52.336-52.336
	C308.335,430.759,284.904,407.328,256,407.328L256,407.328z"/>
<circle style="fill:#FFFFFF;" cx="55.894" cy="120.893" r="48.336"/>
<path style="fill:#E21B1B;" d="M55.896,76.56c24.486,0,44.335,19.849,44.335,44.335s-19.849,44.335-44.335,44.335
	S11.56,145.383,11.56,120.895l0,0C11.586,96.421,31.421,76.587,55.896,76.56 M55.896,68.56c-28.904,0-52.336,23.432-52.336,52.336
	s23.432,52.336,52.336,52.336s52.336-23.432,52.336-52.336l0,0C108.232,91.992,84.801,68.56,55.896,68.56z"/>
<circle style="fill:#FFFFFF;" cx="456.101" cy="120.893" r="48.336"/>
<path style="fill:#E21B1B;" d="M456.104,76.56c24.486,0,44.336,19.849,44.336,44.335s-19.849,44.335-44.336,44.335
	c-24.486,0-44.335-19.849-44.335-44.335l0,0C411.795,96.421,431.629,76.587,456.104,76.56 M456.104,68.56
	c-28.905,0-52.336,23.432-52.336,52.336s23.432,52.336,52.336,52.336c28.904,0,52.336-23.432,52.336-52.336
	S485.008,68.56,456.104,68.56L456.104,68.56z"/>
</svg>