<?xml version="1.0" encoding="UTF-8"?>
<svg xmlns="http://www.w3.org/2000/svg" xmlns:xlink="http://www.w3.org/1999/xlink" width="40px" height="px" viewBox="0 0 40 40" version="1.1">
<g id="surface1">
<path style=" stroke:none;fill-rule:nonzero;fill:rgb(0%,84.705882%,100%);fill-opacity:1;" d="M 32.886719 13.722656 C 32.472656 13.578125 32.042969 13.445312 31.601562 13.316406 C 31.671875 13.019531 31.738281 12.726562 31.800781 12.4375 C 32.773438 7.707031 32.136719 3.894531 29.960938 2.640625 C 27.875 1.4375 24.460938 2.691406 21.015625 5.691406 C 20.683594 5.980469 20.351562 6.285156 20.019531 6.605469 C 19.796875 6.394531 19.574219 6.1875 19.355469 5.992188 C 15.742188 2.785156 12.121094 1.433594 9.949219 2.691406 C 7.863281 3.898438 7.246094 7.484375 8.125 11.96875 C 8.207031 12.398438 8.308594 12.84375 8.417969 13.292969 C 7.90625 13.4375 7.414062 13.59375 6.941406 13.757812 C 2.703125 15.234375 0 17.546875 0 19.949219 C 0 22.425781 2.902344 24.914062 7.3125 26.421875 C 7.664062 26.539062 8.023438 26.652344 8.394531 26.757812 C 8.273438 27.246094 8.171875 27.722656 8.082031 28.1875 C 7.246094 32.59375 7.898438 36.09375 9.976562 37.292969 C 12.125 38.53125 15.730469 37.257812 19.238281 34.1875 C 19.515625 33.945312 19.792969 33.6875 20.074219 33.417969 C 20.433594 33.769531 20.796875 34.097656 21.15625 34.40625 C 24.554688 37.332031 27.914062 38.511719 29.988281 37.308594 C 32.136719 36.066406 32.832031 32.308594 31.925781 27.738281 C 31.859375 27.386719 31.777344 27.03125 31.6875 26.667969 C 31.941406 26.59375 32.1875 26.515625 32.429688 26.4375 C 37.015625 24.917969 40 22.460938 40 19.949219 C 40 17.539062 37.207031 15.210938 32.886719 13.722656 Z M 31.894531 24.8125 C 31.675781 24.886719 31.449219 24.957031 31.222656 25.023438 C 30.714844 23.421875 30.03125 21.71875 29.195312 19.957031 C 29.992188 18.238281 30.652344 16.554688 31.144531 14.964844 C 31.550781 15.082031 31.949219 15.207031 32.332031 15.339844 C 36.035156 16.613281 38.292969 18.496094 38.292969 19.949219 C 38.292969 21.496094 35.851562 23.5 31.894531 24.8125 Z M 30.25 28.070312 C 30.652344 30.089844 30.707031 31.917969 30.441406 33.347656 C 30.203125 34.632812 29.726562 35.488281 29.132812 35.832031 C 27.871094 36.5625 25.175781 35.613281 22.269531 33.109375 C 21.9375 32.824219 21.601562 32.519531 21.265625 32.195312 C 22.390625 30.960938 23.515625 29.527344 24.617188 27.9375 C 26.550781 27.765625 28.378906 27.484375 30.035156 27.101562 C 30.117188 27.429688 30.1875 27.753906 30.25 28.070312 Z M 13.636719 35.707031 C 12.40625 36.140625 11.425781 36.152344 10.832031 35.8125 C 9.570312 35.082031 9.046875 32.273438 9.761719 28.507812 C 9.84375 28.074219 9.941406 27.632812 10.050781 27.179688 C 11.691406 27.539062 13.503906 27.800781 15.441406 27.957031 C 16.550781 29.515625 17.707031 30.945312 18.875 32.199219 C 18.621094 32.445312 18.367188 32.679688 18.113281 32.902344 C 16.5625 34.257812 15.007812 35.222656 13.636719 35.707031 Z M 7.867188 24.804688 C 5.917969 24.136719 4.304688 23.269531 3.203125 22.324219 C 2.210938 21.476562 1.707031 20.632812 1.707031 19.949219 C 1.707031 18.492188 3.878906 16.632812 7.5 15.371094 C 7.941406 15.21875 8.402344 15.074219 8.878906 14.9375 C 9.378906 16.566406 10.035156 18.269531 10.828125 19.988281 C 10.027344 21.738281 9.359375 23.464844 8.855469 25.113281 C 8.515625 25.015625 8.183594 24.914062 7.867188 24.804688 Z M 9.800781 11.640625 C 9.050781 7.796875 9.546875 4.898438 10.804688 4.171875 C 12.144531 3.398438 15.101562 4.5 18.222656 7.269531 C 18.421875 7.449219 18.621094 7.632812 18.820312 7.824219 C 17.660156 9.074219 16.511719 10.492188 15.414062 12.042969 C 13.53125 12.214844 11.730469 12.496094 10.074219 12.871094 C 9.972656 12.453125 9.878906 12.039062 9.800781 11.640625 Z M 27.054688 15.898438 C 26.660156 15.214844 26.253906 14.546875 25.839844 13.898438 C 27.113281 14.058594 28.339844 14.273438 29.484375 14.535156 C 29.140625 15.640625 28.710938 16.796875 28.207031 17.980469 C 27.84375 17.292969 27.460938 16.597656 27.054688 15.898438 Z M 20.019531 9.046875 C 20.808594 9.898438 21.597656 10.851562 22.371094 11.886719 C 21.589844 11.851562 20.796875 11.832031 20 11.832031 C 19.207031 11.832031 18.421875 11.851562 17.644531 11.886719 C 18.421875 10.863281 19.21875 9.910156 20.019531 9.046875 Z M 12.9375 15.910156 C 12.542969 16.597656 12.164062 17.289062 11.808594 17.980469 C 11.3125 16.800781 10.886719 15.640625 10.539062 14.519531 C 11.679688 14.261719 12.894531 14.054688 14.164062 13.894531 C 13.742188 14.550781 13.335938 15.222656 12.9375 15.910156 Z M 14.199219 26.121094 C 12.890625 25.976562 11.65625 25.777344 10.515625 25.53125 C 10.867188 24.390625 11.300781 23.203125 11.8125 22 C 12.167969 22.691406 12.546875 23.382812 12.945312 24.066406 C 13.351562 24.769531 13.769531 25.453125 14.199219 26.121094 Z M 20.066406 30.972656 C 19.257812 30.097656 18.449219 29.128906 17.660156 28.089844 C 18.425781 28.121094 19.207031 28.136719 20 28.136719 C 20.816406 28.136719 21.621094 28.117188 22.414062 28.082031 C 21.636719 29.140625 20.847656 30.109375 20.066406 30.972656 Z M 28.222656 21.9375 C 28.757812 23.15625 29.207031 24.335938 29.566406 25.457031 C 28.40625 25.71875 27.152344 25.933594 25.835938 26.089844 C 26.25 25.433594 26.660156 24.753906 27.0625 24.054688 C 27.46875 23.351562 27.855469 22.640625 28.222656 21.9375 Z M 25.582031 23.203125 C 24.957031 24.285156 24.316406 25.320312 23.664062 26.296875 C 22.476562 26.382812 21.25 26.425781 20 26.425781 C 18.753906 26.425781 17.542969 26.386719 16.378906 26.3125 C 15.699219 25.324219 15.042969 24.285156 14.421875 23.210938 C 13.804688 22.140625 13.234375 21.0625 12.714844 19.988281 C 13.234375 18.914062 13.800781 17.832031 14.417969 16.765625 C 15.035156 15.695312 15.6875 14.660156 16.359375 13.675781 C 17.546875 13.585938 18.765625 13.539062 20 13.539062 C 21.238281 13.539062 22.460938 13.585938 23.648438 13.679688 C 24.308594 14.65625 24.957031 15.683594 25.578125 16.753906 C 26.203125 17.839844 26.78125 18.914062 27.300781 19.964844 C 26.78125 21.035156 26.207031 22.121094 25.582031 23.203125 Z M 29.105469 4.121094 C 30.445312 4.894531 30.96875 8.007812 30.125 12.09375 C 30.070312 12.355469 30.011719 12.621094 29.945312 12.890625 C 28.285156 12.503906 26.484375 12.222656 24.597656 12.042969 C 23.5 10.480469 22.359375 9.054688 21.214844 7.824219 C 21.523438 7.527344 21.832031 7.246094 22.136719 6.980469 C 25.089844 4.410156 27.847656 3.394531 29.105469 4.121094 Z M 20 16.375 C 21.972656 16.375 23.570312 17.976562 23.570312 19.949219 C 23.570312 21.921875 21.972656 23.519531 20 23.519531 C 18.027344 23.519531 16.429688 21.921875 16.429688 19.949219 C 16.429688 17.976562 18.027344 16.375 20 16.375 Z M 20 16.375 "/>
</g>
</svg>
