<?xml version="1.0" encoding="iso-8859-1"?>
<!-- Uploaded to: SVG Repo, www.svgrepo.com, Generator: SVG Repo Mixer Tools -->
<svg height="800px" width="800px" version="1.1" id="Layer_1" xmlns="http://www.w3.org/2000/svg" xmlns:xlink="http://www.w3.org/1999/xlink" 
	 viewBox="0 0 512 512" xml:space="preserve">
<path style="fill:#F26C9A;" d="M400.696,512H111.304c-46.032,0-83.478-37.446-83.478-83.478V83.478
	C27.826,37.446,65.272,0,111.304,0h289.391c46.032,0,83.478,37.446,83.478,83.478v345.043C484.174,474.554,446.728,512,400.696,512z
	"/>
<path style="fill:#D95782;" d="M400.696,0H256v512h144.696c46.032,0,83.478-37.446,83.478-83.478V83.478
	C484.174,37.446,446.728,0,400.696,0z"/>
<path style="fill:#D7EBFF;" d="M389.565,217.043h-267.13c-9.217,0-16.696-7.479-16.696-16.696
	c0-82.858,67.403-150.261,150.261-150.261s150.261,67.403,150.261,150.261C406.261,209.565,398.782,217.043,389.565,217.043z"/>
<path style="fill:#BDDEFF;" d="M256,50.087v166.957h133.565c9.217,0,16.696-7.479,16.696-16.696
	C406.261,117.49,338.858,50.087,256,50.087z"/>
<path style="fill:#D7EBFF;" d="M373.983,445.217h-33.391c-27.619,0-50.087-22.468-50.087-50.087v-77.913
	c0-27.619,22.468-50.087,50.087-50.087h33.391c27.619,0,50.087,22.468,50.087,50.087v77.913
	C424.07,422.749,401.602,445.217,373.983,445.217z"/>
<path style="fill:#BDDEFF;" d="M373.983,267.13h-16.696v178.087h16.696c27.619,0,50.087-22.468,50.087-50.087v-77.913
	C424.07,289.598,401.602,267.13,373.983,267.13z"/>
<path style="fill:#D7EBFF;" d="M172.522,445.217H139.13c-27.619,0-50.087-22.468-50.087-50.087v-77.913
	c0-27.619,22.468-50.087,50.087-50.087h33.391c27.619,0,50.087,22.468,50.087,50.087v77.913
	C222.609,422.749,200.141,445.217,172.522,445.217z"/>
<path style="fill:#BDDEFF;" d="M172.522,267.13h-16.696v178.087h16.696c27.619,0,50.087-22.468,50.087-50.087v-77.913
	C222.609,289.598,200.141,267.13,172.522,267.13z"/>
<path style="fill:#36D9D9;" d="M140.315,183.652h231.369C363.555,127.087,314.772,83.478,256,83.478
	S148.445,127.087,140.315,183.652z"/>
<path style="fill:#43BFBF;" d="M371.685,183.652C363.555,127.087,314.772,83.478,256,83.478v100.174H371.685z"/>
<path style="fill:#736056;" d="M231.351,183.652h38.167l-31.974-57.554c-4.119-8.239-14.141-11.566-22.402-7.467
	c-8.25,4.131-11.587,14.152-7.467,22.402L231.351,183.652z"/>
</svg>